# xmcd CD database file
# Copyright (C) 1996 Ti Kan
#
# Track frame offsets:
#  150
#  2405
#  19852
#  36422
#  38700
#  54510
#  55770
#  72042
#  88620
#  105632
#  120667
#  134250
#  135777
#  151487
#  165057
#  182020
#  201145
#  219655
#  237070
#
# Disc length: 3367 seconds
#
# Revision: 1
# Processed by: cddbd v1.4b41PL1 Copyright (c) Steve Scherf et al.
# Submitted via: CDWizzard Release:4.12
#
DISCID=ec0d2513
DTITLE=Warren G - Take a Look Over Your Shoulder
DYEAR=1900
DGENRE=
TTITLE0=Intro
TTITLE1=Annie May
TTITLE2=Smokin' Me Out
TTITLE3=Reverend Eazy Dick
TTITLE4=Reality
TTITLE5=Interlude
TTITLE6=Young Fun
TTITLE7=What We Go Through
TTITLE8=We Brings Heat
TTITLE9=Can You Feel It
TTITLE10=Transformers
TTITLE11=Reel Tight (Intro)
TTITLE12=Relax Ya Mind
TTITLE13=To All DJ's
TTITLE14=Back Up
TTITLE15=What's Love Got To Do With It
TTITLE16=I SHot The Sheriff
TTITLE17=What's Love Got To Do With It (Remix)
TTITLE18=I SHot The Sheriff (EPMD Remix)
EXTD=
EXTT0=
EXTT1=
EXTT2=
EXTT3=
EXTT4=
EXTT5=
EXTT6=
EXTT7=
EXTT8=
EXTT9=
EXTT10=
EXTT11=
EXTT12=
EXTT13=
EXTT14=
EXTT15=
EXTT16=
EXTT17=
EXTT18=
PLAYORDER=
